<svg xmlns="http://www.w3.org/2000/svg" xmlns:xlink="http://www.w3.org/1999/xlink" width="500" zoomAndPan="magnify" viewBox="0 0 375 374.999991" height="500" preserveAspectRatio="xMidYMid meet" version="1.0"><path fill="#128e96" d="M 133.347656 102.585938 L 242.570312 102.585938 L 242.753906 102.769531 L 242.753906 165.765625 L 241.835938 165.949219 L 209.234375 165.949219 L 194.128906 166.132812 L 194.128906 181.972656 L 214.207031 182.15625 L 214.390625 182.339844 L 214.390625 184.550781 L 214.207031 184.734375 L 161.710938 184.734375 L 161.527344 184.550781 L 161.527344 182.15625 L 180.5 181.972656 L 180.5 170.554688 L 180.683594 165.949219 L 133.53125 165.949219 L 133.347656 165.765625 L 133.164062 158.394531 L 133.164062 102.769531 Z M 135.925781 105.351562 L 135.925781 158.765625 L 137.03125 158.210938 L 140.347656 155.816406 L 142.003906 154.527344 L 142.925781 152.132812 L 143.660156 151.582031 L 145.320312 151.582031 L 147.160156 149.1875 L 148.820312 146.976562 L 148.632812 146.054688 L 148.632812 144.582031 L 149.554688 143.476562 L 149.921875 143.292969 L 151.582031 143.476562 L 152.503906 144.582031 L 152.503906 146.054688 L 152.132812 146.792969 L 152.316406 147.714844 L 154.527344 152.316406 L 155.632812 154.34375 L 158.210938 154.527344 L 158.582031 154.34375 L 158.765625 153.421875 L 158.765625 152.132812 L 159.316406 151.214844 L 160.054688 150.660156 L 161.710938 150.660156 L 162.632812 151.582031 L 162.816406 151.949219 L 162.816406 153.421875 L 162.632812 153.605469 L 162.632812 154.710938 L 163.371094 155.449219 L 165.949219 155.816406 L 167.789062 154.160156 L 169.261719 152.871094 L 171.84375 150.660156 L 174.238281 148.632812 L 174.972656 148.082031 L 174.972656 146.425781 L 175.527344 145.503906 L 176.261719 145.132812 L 177.550781 145.132812 L 178.472656 145.6875 L 179.027344 146.792969 L 178.65625 149.003906 L 179.761719 150.476562 L 180.5 150.84375 L 181.972656 151.027344 L 183.078125 150.109375 L 183.261719 149.371094 L 182.894531 148.449219 L 183.078125 147.527344 L 184 146.425781 L 184.550781 146.238281 L 185.839844 146.238281 L 186.945312 147.160156 L 187.128906 147.527344 L 187.128906 149.003906 L 186.394531 150.109375 L 186.945312 151.765625 L 187.5 153.054688 L 187.867188 153.421875 L 189.523438 153.421875 L 191.734375 150.660156 L 193.578125 148.082031 L 196.15625 144.582031 L 202.234375 136.476562 L 204.8125 132.976562 L 204.996094 132.058594 L 204.628906 131.320312 L 204.8125 130.398438 L 205.550781 129.292969 L 206.101562 129.109375 L 207.390625 129.109375 L 208.3125 129.664062 L 208.679688 130.398438 L 208.679688 131.6875 L 208.496094 132.792969 L 209.601562 134.820312 L 211.628906 138.320312 L 212.363281 138.6875 L 213.652344 138.6875 L 214.757812 138.871094 L 217.519531 136.292969 L 219.730469 134.265625 L 221.757812 132.609375 L 224.890625 129.664062 L 226.730469 128.003906 L 228.019531 126.898438 L 227.835938 125.425781 L 228.574219 124.136719 L 229.308594 123.769531 L 230.414062 123.769531 L 231.335938 124.320312 L 231.886719 125.425781 L 231.703125 126.714844 L 231.519531 127.085938 L 232.808594 128.742188 L 234.464844 130.582031 L 237.414062 130.582031 L 239.253906 128.925781 L 239.992188 128.375 L 239.992188 105.351562 Z M 228.574219 127.636719 L 227.46875 128.375 L 224.703125 130.953125 L 223.230469 132.242188 L 221.390625 133.898438 L 219.914062 135.1875 L 217.707031 137.214844 L 216.230469 138.503906 L 214.941406 139.609375 L 214.941406 140.898438 L 214.207031 142.371094 L 212.917969 142.738281 L 211.628906 142.371094 L 210.890625 141.265625 L 210.707031 140.53125 L 211.257812 139.609375 L 211.074219 138.6875 L 209.601562 136.292969 L 208.128906 133.714844 L 207.941406 133.164062 L 205.734375 133.164062 L 204.074219 135.003906 L 202.234375 137.582031 L 199.65625 141.082031 L 196.890625 144.765625 L 194.3125 148.265625 L 192.101562 151.214844 L 190.078125 153.976562 L 190.261719 154.898438 L 190.261719 156.1875 L 189.523438 157.292969 L 188.417969 157.660156 L 187.128906 157.292969 L 186.394531 156.371094 L 186.207031 156 L 186.207031 154.898438 L 186.945312 153.976562 L 186.023438 151.582031 L 185.289062 150.476562 L 184.367188 150.109375 L 183.078125 151.027344 L 182.894531 151.949219 L 183.078125 152.871094 L 182.710938 154.160156 L 182.15625 154.710938 L 179.945312 154.710938 L 179.210938 153.976562 L 179.027344 153.605469 L 179.027344 152.316406 L 179.394531 151.765625 L 179.210938 150.84375 L 177.734375 149.1875 L 175.339844 148.820312 L 173.683594 150.109375 L 171.105469 152.316406 L 169.078125 154.160156 L 167.238281 155.632812 L 166.316406 156.554688 L 166.5 157.660156 L 165.765625 159.132812 L 165.210938 159.5 L 163.554688 159.5 L 162.449219 158.582031 L 162.265625 157.105469 L 162.632812 156 L 162.265625 155.082031 L 160.789062 154.710938 L 159.316406 154.527344 L 158.582031 154.898438 L 158.394531 155.632812 L 158.394531 157.105469 L 157.476562 158.210938 L 157.105469 158.394531 L 155.632812 158.394531 L 154.527344 157.476562 L 154.34375 157.105469 L 154.34375 155.816406 L 154.898438 155.082031 L 154.527344 153.976562 L 151.582031 147.898438 L 151.027344 147.34375 L 149.738281 147.34375 L 148.820312 148.082031 L 146.054688 151.765625 L 146.238281 152.871094 L 146.238281 154.34375 L 145.132812 155.449219 L 143.476562 155.449219 L 142.371094 155.265625 L 138.6875 157.84375 L 135.925781 159.6875 L 135.925781 163.371094 L 239.992188 163.371094 L 239.992188 129.480469 L 239.253906 129.847656 L 237.597656 131.503906 L 237.78125 132.976562 L 236.675781 134.453125 L 235.386719 134.636719 L 234.28125 133.898438 L 233.730469 133.164062 L 233.914062 131.136719 L 231.519531 128.558594 L 230.78125 127.820312 Z M 228.574219 127.636719 " fill-opacity="1" fill-rule="nonzero"/><path fill="#fdfdfd" d="M 187.5 206.285156 L 208.863281 206.285156 L 212.363281 206.46875 L 216.230469 207.207031 L 218.808594 208.128906 L 221.574219 209.601562 L 223.414062 211.074219 L 224.890625 212.363281 L 226.730469 214.757812 L 228.203125 217.707031 L 229.125 220.46875 L 229.492188 223.414062 L 229.492188 227.46875 L 229.125 230.230469 L 227.835938 234.097656 L 226.363281 236.675781 L 224.335938 239.070312 L 222.125 240.914062 L 219.179688 242.570312 L 217.335938 243.308594 L 214.207031 244.042969 L 211.441406 244.414062 L 206.46875 244.597656 L 194.867188 244.597656 L 194.683594 259.515625 L 194.496094 261.175781 L 193.207031 262.464844 L 192.839844 262.648438 L 185.472656 262.648438 L 184.183594 261.910156 L 183.628906 260.988281 L 183.628906 235.386719 L 184.734375 234.097656 L 186.207031 233.730469 L 210.707031 233.546875 L 213.835938 232.808594 L 215.3125 232.070312 L 216.601562 230.96875 L 217.890625 228.386719 L 218.074219 227.46875 L 218.074219 223.597656 L 217.519531 221.757812 L 216.785156 220.285156 L 215.863281 219.179688 L 214.390625 218.257812 L 211.8125 217.519531 L 209.96875 217.335938 L 185.472656 217.152344 L 184.367188 216.414062 L 183.816406 215.863281 L 183.445312 213.835938 L 183.445312 210.152344 L 183.628906 207.941406 L 184.734375 206.652344 L 185.105469 206.46875 Z M 187.5 206.285156 " fill-opacity="1" fill-rule="nonzero"/><path fill="#fdfdfd" d="M 69.25 206.285156 L 70.539062 206.285156 L 71.644531 206.839844 L 72.5625 207.941406 L 72.75 208.679688 L 72.75 214.941406 L 72.011719 216.414062 L 71.089844 216.96875 L 67.773438 217.890625 L 65.75 218.996094 L 64.460938 220.46875 L 64.089844 221.574219 L 64.089844 223.785156 L 64.644531 224.703125 L 67.589844 226.363281 L 72.011719 227.835938 L 76.800781 228.941406 L 81.773438 230.230469 L 85.457031 231.335938 L 87.484375 232.070312 L 90.429688 233.363281 L 93.007812 235.019531 L 95.035156 236.675781 L 96.507812 238.335938 L 97.980469 240.914062 L 98.71875 242.9375 L 99.085938 245.519531 L 98.902344 249.203125 L 98.167969 251.964844 L 97.246094 254.175781 L 95.585938 256.570312 L 93.378906 258.78125 L 90.796875 260.4375 L 88.957031 261.359375 L 85.089844 262.648438 L 83.246094 263.015625 L 79.195312 263.199219 L 78.273438 262.832031 L 77.539062 261.726562 L 77.351562 260.804688 L 77.351562 255.28125 L 77.90625 253.621094 L 78.640625 252.886719 L 79.5625 252.515625 L 81.957031 252.148438 L 83.800781 251.597656 L 85.824219 250.492188 L 86.746094 249.570312 L 87.300781 248.28125 L 87.484375 247.726562 L 87.484375 245.519531 L 86.5625 244.042969 L 84.71875 242.9375 L 82.140625 241.835938 L 78.089844 240.542969 L 73.484375 239.441406 L 68.695312 238.335938 L 64.277344 236.859375 L 60.777344 235.203125 L 58.75 233.914062 L 56.722656 232.257812 L 55.066406 230.597656 L 53.59375 228.019531 L 52.855469 225.074219 L 52.671875 222.125 L 53.222656 218.625 L 53.960938 216.414062 L 55.433594 213.835938 L 57.277344 211.628906 L 58.75 210.335938 L 61.328125 208.679688 L 64.277344 207.390625 Z M 69.25 206.285156 " fill-opacity="1" fill-rule="nonzero"/><path fill="#fdfdfd" d="M 134.636719 206.285156 L 136.109375 206.46875 L 137.214844 207.390625 L 137.765625 209.234375 L 137.765625 214.390625 L 137.398438 216.046875 L 136.660156 216.96875 L 134.636719 217.707031 L 132.058594 218.625 L 129.292969 220.285156 L 127.085938 222.308594 L 125.609375 224.152344 L 124.136719 226.730469 L 123.214844 229.675781 L 122.664062 232.808594 L 122.664062 236.675781 L 123.585938 241.28125 L 124.503906 243.308594 L 125.980469 245.886719 L 128.003906 248.097656 L 129.480469 249.386719 L 131.6875 250.675781 L 135.003906 251.964844 L 136.847656 252.703125 L 137.582031 253.992188 L 137.765625 256.753906 L 137.765625 260.4375 L 137.214844 262.09375 L 136.109375 263.015625 L 133.347656 263.015625 L 130.582031 262.277344 L 126.898438 260.804688 L 123.953125 259.148438 L 121.558594 257.304688 L 119.347656 255.28125 L 117.320312 253.070312 L 115.664062 250.675781 L 114.007812 247.726562 L 112.71875 244.597656 L 111.613281 240.359375 L 111.242188 236.492188 L 111.242188 232.992188 L 111.429688 230.230469 L 112.53125 225.625 L 113.269531 223.414062 L 114.742188 220.285156 L 116.585938 217.519531 L 118.058594 215.679688 L 120.085938 213.46875 L 121.742188 211.996094 L 124.691406 209.96875 L 126.898438 208.679688 L 130.769531 207.207031 Z M 134.636719 206.285156 " fill-opacity="1" fill-rule="nonzero"/><path fill="#fefefe" d="M 292.855469 206.652344 L 294.144531 206.839844 L 295.25 207.574219 L 295.800781 209.234375 L 295.800781 215.496094 L 295.25 216.785156 L 294.511719 217.519531 L 292.117188 218.441406 L 289.539062 219.914062 L 287.511719 221.574219 L 286.222656 223.046875 L 284.75 225.441406 L 283.277344 229.125 L 282.910156 231.703125 L 282.910156 238.148438 L 283.460938 241.097656 L 284.75 244.414062 L 286.59375 247.175781 L 287.882812 248.648438 L 289.722656 249.9375 L 294.878906 252.515625 L 295.617188 253.4375 L 295.800781 254.175781 L 295.800781 260.804688 L 295.25 262.09375 L 294.511719 262.832031 L 293.960938 263.015625 L 291.75 263.015625 L 289.171875 262.277344 L 285.855469 260.804688 L 283.277344 259.332031 L 281.25 257.675781 L 279.410156 256.015625 L 277.382812 253.804688 L 275.539062 251.042969 L 273.882812 247.914062 L 272.59375 244.414062 L 271.855469 240.914062 L 271.488281 238.335938 L 271.304688 234.464844 L 271.488281 231.335938 L 272.226562 226.730469 L 273.144531 223.785156 L 274.066406 221.390625 L 275.910156 218.074219 L 277.382812 216.046875 L 279.59375 213.46875 L 281.617188 211.628906 L 284.011719 209.96875 L 286.222656 208.679688 L 289.355469 207.390625 Z M 292.855469 206.652344 " fill-opacity="1" fill-rule="nonzero"/><path fill="#fdfdfd" d="M 139.792969 230.230469 L 166.683594 230.230469 L 168.160156 231.335938 L 168.710938 232.441406 L 168.894531 234.652344 L 168.710938 238.148438 L 167.789062 242.753906 L 166.867188 245.886719 L 165.210938 249.386719 L 163.921875 251.410156 L 162.265625 253.621094 L 160.054688 256.015625 L 157.476562 258.226562 L 154.160156 260.253906 L 151.398438 261.542969 L 148.265625 262.648438 L 145.132812 263.199219 L 143.476562 262.832031 L 142.554688 261.542969 L 142.371094 260.988281 L 142.371094 254.175781 L 143.109375 252.886719 L 143.84375 252.332031 L 146.609375 251.410156 L 149.003906 250.308594 L 151.027344 249.015625 L 152.871094 247.359375 L 154.527344 245.332031 L 156.371094 241.835938 L 156.554688 241.28125 L 139.976562 241.097656 L 138.871094 240.542969 L 138.136719 239.808594 L 137.765625 238.519531 L 137.765625 232.625 L 138.320312 231.335938 Z M 139.792969 230.230469 " fill-opacity="1" fill-rule="nonzero"/><path fill="#fefefe" d="M 246.253906 228.941406 L 253.621094 228.941406 L 255.097656 230.046875 L 255.464844 230.414062 L 255.464844 261.175781 L 255.097656 261.726562 L 254.726562 261.726562 L 254.359375 262.464844 L 253.621094 262.832031 L 246.4375 262.832031 L 245.519531 262.464844 L 244.78125 261.542969 L 244.414062 260.804688 L 244.414062 230.78125 L 244.964844 229.863281 Z M 246.253906 228.941406 " fill-opacity="1" fill-rule="nonzero"/><path fill="#fdfdfd" d="M 316.0625 242.386719 L 322.140625 242.386719 L 323.796875 242.9375 L 324.71875 244.230469 L 324.71875 245.886719 L 323.613281 248.832031 L 321.773438 252.148438 L 319.929688 254.542969 L 317.90625 256.753906 L 315.324219 258.78125 L 312.929688 260.253906 L 310.351562 261.542969 L 306.667969 262.832031 L 303.351562 263.199219 L 302.0625 263.199219 L 301.144531 262.648438 L 300.589844 261.726562 L 300.40625 260.804688 L 300.40625 255.097656 L 300.957031 253.4375 L 301.878906 252.703125 L 304.273438 252.148438 L 306.667969 251.226562 L 308.328125 250.308594 L 310.167969 248.832031 L 311.640625 247.175781 L 313.117188 244.78125 L 313.667969 243.675781 L 314.589844 242.753906 Z M 316.0625 242.386719 " fill-opacity="1" fill-rule="nonzero"/><path fill="#fdfdfd" d="M 302.433594 206.285156 L 303.722656 206.285156 L 308.328125 207.390625 L 312.195312 209.046875 L 314.957031 210.707031 L 317.535156 212.730469 L 319.929688 215.125 L 321.957031 217.890625 L 323.613281 220.835938 L 324.71875 223.785156 L 324.71875 225.441406 L 323.984375 226.546875 L 323.429688 227.097656 L 314.773438 227.097656 L 313.851562 226.363281 L 312.195312 223.414062 L 310.535156 221.203125 L 308.878906 219.730469 L 305.746094 218.074219 L 302.25 217.152344 L 301.144531 216.414062 L 300.589844 215.496094 L 300.40625 214.390625 L 300.40625 209.234375 L 300.773438 207.757812 L 301.695312 206.652344 Z M 302.433594 206.285156 " fill-opacity="1" fill-rule="nonzero"/><path fill="#fdfdfd" d="M 53.222656 242.386719 L 60.589844 242.386719 L 62.066406 243.308594 L 62.617188 244.414062 L 62.984375 246.808594 L 64.460938 249.203125 L 66.117188 250.492188 L 68.878906 251.78125 L 71.273438 252.515625 L 72.378906 253.4375 L 72.75 254.542969 L 72.75 260.988281 L 72.195312 262.09375 L 71.089844 263.015625 L 68.144531 263.015625 L 65.195312 262.277344 L 61.882812 260.988281 L 59.117188 259.515625 L 57.09375 257.859375 L 55.25 256.015625 L 53.960938 254.175781 L 52.488281 251.226562 L 51.75 249.015625 L 51.199219 245.703125 L 51.199219 244.414062 L 51.933594 243.125 Z M 53.222656 242.386719 " fill-opacity="1" fill-rule="nonzero"/><path fill="#fdfdfd" d="M 144.398438 206.285156 L 146.054688 206.46875 L 149.921875 207.390625 L 153.792969 209.046875 L 157.105469 211.074219 L 159.5 213.101562 L 162.265625 215.863281 L 164.472656 218.996094 L 165.765625 221.203125 L 166.316406 223.046875 L 165.949219 224.519531 L 164.84375 225.625 L 162.082031 225.808594 L 157.476562 225.808594 L 155.632812 225.441406 L 154.34375 223.96875 L 153.054688 222.308594 L 151.582031 220.835938 L 149.003906 219.179688 L 146.609375 218.074219 L 143.660156 217.152344 L 142.554688 215.863281 L 142.371094 215.125 L 142.371094 208.679688 L 142.925781 207.390625 L 144.03125 206.46875 Z M 144.398438 206.285156 " fill-opacity="1" fill-rule="nonzero"/><path fill="#fefefe" d="M 79.746094 206.46875 L 83.246094 207.023438 L 86.195312 207.941406 L 89.140625 209.417969 L 90.984375 210.707031 L 92.824219 212.363281 L 94.296875 213.835938 L 95.957031 216.414062 L 97.246094 219.914062 L 97.613281 221.757812 L 97.613281 223.96875 L 96.878906 225.074219 L 95.957031 225.808594 L 91.535156 225.992188 L 88.035156 225.808594 L 87.113281 225.257812 L 86.5625 224.519531 L 85.457031 221.203125 L 84.71875 220.101562 L 83.429688 218.996094 L 81.222656 217.890625 L 79.011719 217.335938 L 77.722656 216.230469 L 77.351562 214.574219 L 77.351562 209.046875 L 77.722656 207.757812 L 79.011719 206.652344 Z M 79.746094 206.46875 " fill-opacity="1" fill-rule="nonzero"/><path fill="#fdfdfd" d="M 247.359375 206.285156 L 252.886719 206.285156 L 254.175781 206.652344 L 255.28125 207.574219 L 255.464844 207.941406 L 255.464844 224.152344 L 254.175781 225.625 L 251.410156 225.808594 L 247.359375 225.808594 L 245.519531 225.441406 L 244.597656 224.335938 L 244.414062 223.96875 L 244.414062 208.128906 L 245.148438 207.023438 L 246.070312 206.46875 Z M 247.359375 206.285156 " fill-opacity="1" fill-rule="nonzero"/></svg>