<svg xmlns="http://www.w3.org/2000/svg" xmlns:xlink="http://www.w3.org/1999/xlink" width="500" zoomAndPan="magnify" viewBox="0 0 375 374.999991" height="500" preserveAspectRatio="xMidYMid meet" version="1.0"><path fill="#fdfdfd" d="M 248.214844 164.925781 L 264.335938 164.925781 L 266.976562 165.066406 L 269.898438 165.621094 L 271.84375 166.316406 L 273.925781 167.429688 L 275.316406 168.539062 L 276.429688 169.511719 L 277.820312 171.320312 L 278.929688 173.542969 L 279.625 175.628906 L 279.902344 177.851562 L 279.902344 180.910156 L 279.625 182.996094 L 278.652344 185.914062 L 277.542969 187.859375 L 276.011719 189.667969 L 274.34375 191.058594 L 272.121094 192.308594 L 270.730469 192.863281 L 268.367188 193.417969 L 266.28125 193.699219 L 262.53125 193.835938 L 253.773438 193.835938 L 253.632812 205.09375 L 253.496094 206.347656 L 252.523438 207.320312 L 252.246094 207.457031 L 246.683594 207.457031 L 245.710938 206.902344 L 245.296875 206.207031 L 245.296875 186.886719 L 246.128906 185.914062 L 247.242188 185.636719 L 265.726562 185.496094 L 268.089844 184.941406 L 269.203125 184.386719 L 270.175781 183.550781 L 271.148438 181.605469 L 271.285156 180.910156 L 271.285156 177.992188 L 270.871094 176.601562 L 270.3125 175.488281 L 269.617188 174.65625 L 268.507812 173.960938 L 266.5625 173.40625 L 265.171875 173.265625 L 246.683594 173.128906 L 245.851562 172.570312 L 245.433594 172.15625 L 245.15625 170.625 L 245.15625 167.84375 L 245.296875 166.179688 L 246.128906 165.203125 L 246.40625 165.066406 Z M 248.214844 164.925781 " fill-opacity="1" fill-rule="nonzero"/><path fill="#fdfdfd" d="M 158.980469 164.925781 L 159.957031 164.925781 L 160.789062 165.34375 L 161.484375 166.179688 L 161.625 166.734375 L 161.625 171.460938 L 161.066406 172.570312 L 160.371094 172.988281 L 157.871094 173.683594 L 156.339844 174.515625 L 155.367188 175.628906 L 155.089844 176.464844 L 155.089844 178.132812 L 155.507812 178.824219 L 157.730469 180.078125 L 161.066406 181.1875 L 164.679688 182.023438 L 168.433594 182.996094 L 171.214844 183.828125 L 172.742188 184.386719 L 174.964844 185.359375 L 176.914062 186.609375 L 178.441406 187.859375 L 179.554688 189.109375 L 180.664062 191.058594 L 181.222656 192.585938 L 181.5 194.53125 L 181.359375 197.3125 L 180.804688 199.394531 L 180.109375 201.0625 L 178.859375 202.871094 L 177.191406 204.539062 L 175.246094 205.789062 L 173.855469 206.484375 L 170.9375 207.457031 L 169.546875 207.734375 L 166.488281 207.875 L 165.792969 207.597656 L 165.238281 206.761719 L 165.097656 206.066406 L 165.097656 201.898438 L 165.515625 200.648438 L 166.070312 200.089844 L 166.765625 199.8125 L 168.574219 199.535156 L 169.960938 199.117188 L 171.492188 198.285156 L 172.1875 197.589844 L 172.601562 196.617188 L 172.742188 196.199219 L 172.742188 194.53125 L 172.046875 193.417969 L 170.65625 192.585938 L 168.710938 191.75 L 165.652344 190.777344 L 162.179688 189.945312 L 158.566406 189.109375 L 155.230469 188 L 152.589844 186.75 L 151.058594 185.773438 L 149.53125 184.523438 L 148.28125 183.273438 L 147.167969 181.328125 L 146.613281 179.105469 L 146.472656 176.878906 L 146.890625 174.238281 L 147.445312 172.570312 L 148.558594 170.625 L 149.949219 168.957031 L 151.058594 167.984375 L 153.003906 166.734375 L 155.230469 165.761719 Z M 158.980469 164.925781 " fill-opacity="1" fill-rule="nonzero"/><path fill="#fdfdfd" d="M 208.324219 164.925781 L 209.4375 165.066406 L 210.269531 165.761719 L 210.6875 167.152344 L 210.6875 171.042969 L 210.410156 172.292969 L 209.851562 172.988281 L 208.324219 173.542969 L 206.378906 174.238281 L 204.292969 175.488281 L 202.625 177.019531 L 201.511719 178.410156 L 200.402344 180.355469 L 199.707031 182.578125 L 199.289062 184.941406 L 199.289062 187.859375 L 199.984375 191.335938 L 200.679688 192.863281 L 201.792969 194.808594 L 203.320312 196.476562 L 204.433594 197.449219 L 206.101562 198.421875 L 208.601562 199.394531 L 209.992188 199.953125 L 210.546875 200.925781 L 210.6875 203.011719 L 210.6875 205.789062 L 210.269531 207.039062 L 209.4375 207.734375 L 207.351562 207.734375 L 205.265625 207.179688 L 202.488281 206.066406 L 200.261719 204.816406 L 198.457031 203.425781 L 196.789062 201.898438 L 195.257812 200.230469 L 194.007812 198.421875 L 192.757812 196.199219 L 191.785156 193.835938 L 190.949219 190.640625 L 190.671875 187.722656 L 190.671875 185.082031 L 190.8125 182.996094 L 191.644531 179.519531 L 192.199219 177.851562 L 193.3125 175.488281 L 194.703125 173.40625 L 195.816406 172.015625 L 197.34375 170.347656 L 198.59375 169.234375 L 200.820312 167.707031 L 202.488281 166.734375 L 205.40625 165.621094 Z M 208.324219 164.925781 " fill-opacity="1" fill-rule="nonzero"/><path fill="#fefefe" d="M 327.714844 165.203125 L 328.691406 165.34375 L 329.523438 165.898438 L 329.941406 167.152344 L 329.941406 171.875 L 329.523438 172.847656 L 328.96875 173.40625 L 327.160156 174.101562 L 325.214844 175.210938 L 323.6875 176.464844 L 322.710938 177.574219 L 321.601562 179.382812 L 320.488281 182.160156 L 320.210938 184.109375 L 320.210938 188.972656 L 320.628906 191.195312 L 321.601562 193.699219 L 322.992188 195.78125 L 323.964844 196.894531 L 325.355469 197.867188 L 329.246094 199.8125 L 329.800781 200.507812 L 329.941406 201.0625 L 329.941406 206.066406 L 329.523438 207.039062 L 328.96875 207.597656 L 328.550781 207.734375 L 326.882812 207.734375 L 324.9375 207.179688 L 322.433594 206.066406 L 320.488281 204.957031 L 318.960938 203.707031 L 317.570312 202.453125 L 316.042969 200.785156 L 314.652344 198.703125 L 313.402344 196.339844 L 312.425781 193.699219 L 311.871094 191.058594 L 311.59375 189.109375 L 311.453125 186.191406 L 311.59375 183.828125 L 312.148438 180.355469 L 312.84375 178.132812 L 313.539062 176.324219 L 314.929688 173.820312 L 316.042969 172.292969 L 317.710938 170.347656 L 319.238281 168.957031 L 321.046875 167.707031 L 322.710938 166.734375 L 325.074219 165.761719 Z M 327.714844 165.203125 " fill-opacity="1" fill-rule="nonzero"/><path fill="#fdfdfd" d="M 212.214844 182.996094 L 232.507812 182.996094 L 233.621094 183.828125 L 234.039062 184.664062 L 234.175781 186.332031 L 234.039062 188.972656 L 233.34375 192.445312 L 232.648438 194.808594 L 231.394531 197.449219 L 230.421875 198.980469 L 229.171875 200.648438 L 227.503906 202.453125 L 225.558594 204.121094 L 223.058594 205.652344 L 220.972656 206.625 L 218.609375 207.457031 L 216.246094 207.875 L 214.996094 207.597656 L 214.300781 206.625 L 214.160156 206.207031 L 214.160156 201.0625 L 214.71875 200.089844 L 215.273438 199.675781 L 217.359375 198.980469 L 219.164062 198.144531 L 220.695312 197.171875 L 222.082031 195.921875 L 223.335938 194.394531 L 224.726562 191.75 L 224.863281 191.335938 L 212.355469 191.195312 L 211.519531 190.777344 L 210.964844 190.222656 L 210.6875 189.25 L 210.6875 184.800781 L 211.105469 183.828125 Z M 212.214844 182.996094 " fill-opacity="1" fill-rule="nonzero"/><path fill="#fefefe" d="M 292.550781 182.023438 L 298.113281 182.023438 L 299.222656 182.855469 L 299.5 183.132812 L 299.5 206.347656 L 299.222656 206.761719 L 298.945312 206.761719 L 298.667969 207.320312 L 298.113281 207.597656 L 292.691406 207.597656 L 291.996094 207.320312 L 291.441406 206.625 L 291.164062 206.066406 L 291.164062 183.414062 L 291.578125 182.71875 Z M 292.550781 182.023438 " fill-opacity="1" fill-rule="nonzero"/><path fill="#fdfdfd" d="M 345.230469 192.167969 L 349.816406 192.167969 L 351.066406 192.585938 L 351.761719 193.558594 L 351.761719 194.808594 L 350.929688 197.035156 L 349.539062 199.535156 L 348.148438 201.34375 L 346.621094 203.011719 L 344.671875 204.539062 L 342.867188 205.652344 L 340.921875 206.625 L 338.140625 207.597656 L 335.640625 207.875 L 334.667969 207.875 L 333.972656 207.457031 L 333.554688 206.761719 L 333.414062 206.066406 L 333.414062 201.757812 L 333.832031 200.507812 L 334.527344 199.953125 L 336.332031 199.535156 L 338.140625 198.839844 L 339.390625 198.144531 L 340.78125 197.035156 L 341.894531 195.78125 L 343.003906 193.976562 L 343.421875 193.140625 L 344.117188 192.445312 Z M 345.230469 192.167969 " fill-opacity="1" fill-rule="nonzero"/><path fill="#fdfdfd" d="M 334.945312 164.925781 L 335.917969 164.925781 L 339.390625 165.761719 L 342.308594 167.011719 L 344.394531 168.261719 L 346.339844 169.792969 L 348.148438 171.597656 L 349.675781 173.683594 L 350.929688 175.90625 L 351.761719 178.132812 L 351.761719 179.382812 L 351.207031 180.214844 L 350.789062 180.632812 L 344.257812 180.632812 L 343.5625 180.078125 L 342.308594 177.851562 L 341.058594 176.183594 L 339.808594 175.074219 L 337.445312 173.820312 L 334.804688 173.128906 L 333.972656 172.570312 L 333.554688 171.875 L 333.414062 171.042969 L 333.414062 167.152344 L 333.691406 166.039062 L 334.386719 165.203125 Z M 334.945312 164.925781 " fill-opacity="1" fill-rule="nonzero"/><path fill="#fdfdfd" d="M 146.890625 192.167969 L 152.449219 192.167969 L 153.5625 192.863281 L 153.980469 193.699219 L 154.257812 195.503906 L 155.367188 197.3125 L 156.621094 198.285156 L 158.703125 199.257812 L 160.511719 199.8125 L 161.34375 200.507812 L 161.625 201.34375 L 161.625 206.207031 L 161.207031 207.039062 L 160.371094 207.734375 L 158.148438 207.734375 L 155.925781 207.179688 L 153.421875 206.207031 L 151.339844 205.09375 L 149.808594 203.84375 L 148.417969 202.453125 L 147.445312 201.0625 L 146.335938 198.839844 L 145.777344 197.171875 L 145.363281 194.671875 L 145.363281 193.699219 L 145.917969 192.726562 Z M 146.890625 192.167969 " fill-opacity="1" fill-rule="nonzero"/><path fill="#fdfdfd" d="M 215.691406 164.925781 L 216.941406 165.066406 L 219.859375 165.761719 L 222.777344 167.011719 L 225.28125 168.539062 L 227.085938 170.070312 L 229.171875 172.15625 L 230.839844 174.515625 L 231.8125 176.183594 L 232.230469 177.574219 L 231.953125 178.6875 L 231.117188 179.519531 L 229.035156 179.660156 L 225.558594 179.660156 L 224.167969 179.382812 L 223.195312 178.269531 L 222.222656 177.019531 L 221.109375 175.90625 L 219.164062 174.65625 L 217.359375 173.820312 L 215.132812 173.128906 L 214.300781 172.15625 L 214.160156 171.597656 L 214.160156 166.734375 L 214.578125 165.761719 L 215.414062 165.066406 Z M 215.691406 164.925781 " fill-opacity="1" fill-rule="nonzero"/><path fill="#fefefe" d="M 166.90625 165.066406 L 169.546875 165.484375 L 171.769531 166.179688 L 173.992188 167.289062 L 175.382812 168.261719 L 176.773438 169.511719 L 177.886719 170.625 L 179.136719 172.570312 L 180.109375 175.210938 L 180.386719 176.601562 L 180.386719 178.269531 L 179.832031 179.105469 L 179.136719 179.660156 L 175.800781 179.796875 L 173.160156 179.660156 L 172.464844 179.242188 L 172.046875 178.6875 L 171.214844 176.183594 L 170.65625 175.351562 L 169.683594 174.515625 L 168.015625 173.683594 L 166.347656 173.265625 L 165.375 172.433594 L 165.097656 171.179688 L 165.097656 167.011719 L 165.375 166.039062 L 166.347656 165.203125 Z M 166.90625 165.066406 " fill-opacity="1" fill-rule="nonzero"/><path fill="#fdfdfd" d="M 293.386719 164.925781 L 297.554688 164.925781 L 298.527344 165.203125 L 299.363281 165.898438 L 299.5 166.179688 L 299.5 178.410156 L 298.527344 179.519531 L 296.445312 179.660156 L 293.386719 179.660156 L 291.996094 179.382812 L 291.300781 178.546875 L 291.160156 178.269531 L 291.160156 166.316406 L 291.71875 165.484375 L 292.414062 165.066406 Z M 293.386719 164.925781 " fill-opacity="1" fill-rule="nonzero"/><path fill="#64c2c8" d="M 26.371094 148.648438 L 126.660156 148.648438 L 126.832031 148.816406 L 126.832031 206.660156 L 125.984375 206.828125 L 96.050781 206.828125 L 82.179688 206.996094 L 82.179688 221.542969 L 100.617188 221.710938 L 100.785156 221.878906 L 100.785156 223.910156 L 100.617188 224.078125 L 52.414062 224.078125 L 52.246094 223.910156 L 52.246094 221.710938 L 69.667969 221.542969 L 69.667969 211.054688 L 69.835938 206.828125 L 26.539062 206.828125 L 26.371094 206.660156 L 26.199219 199.894531 L 26.199219 148.816406 Z M 28.738281 151.1875 L 28.738281 200.230469 L 29.753906 199.722656 L 32.796875 197.527344 L 34.320312 196.34375 L 35.164062 194.144531 L 35.839844 193.636719 L 37.363281 193.636719 L 39.054688 191.4375 L 40.578125 189.40625 L 40.40625 188.5625 L 40.40625 187.210938 L 41.253906 186.195312 L 41.589844 186.023438 L 43.113281 186.195312 L 43.960938 187.210938 L 43.960938 188.5625 L 43.621094 189.238281 L 43.789062 190.085938 L 45.820312 194.3125 L 46.835938 196.171875 L 49.203125 196.34375 L 49.539062 196.171875 L 49.710938 195.328125 L 49.710938 194.144531 L 50.21875 193.296875 L 50.894531 192.789062 L 52.414062 192.789062 L 53.261719 193.636719 L 53.429688 193.972656 L 53.429688 195.328125 L 53.261719 195.496094 L 53.261719 196.511719 L 53.9375 197.1875 L 56.304688 197.527344 L 57.996094 196.003906 L 59.347656 194.820312 L 61.71875 192.789062 L 63.914062 190.929688 L 64.59375 190.421875 L 64.59375 188.902344 L 65.101562 188.054688 L 65.777344 187.714844 L 66.960938 187.714844 L 67.804688 188.222656 L 68.3125 189.238281 L 67.976562 191.269531 L 68.988281 192.621094 L 69.667969 192.960938 L 71.019531 193.128906 L 72.035156 192.28125 L 72.203125 191.605469 L 71.863281 190.761719 L 72.035156 189.914062 L 72.878906 188.902344 L 73.386719 188.730469 L 74.570312 188.730469 L 75.585938 189.578125 L 75.753906 189.914062 L 75.753906 191.269531 L 75.078125 192.28125 L 75.585938 193.804688 L 76.09375 194.988281 L 76.429688 195.328125 L 77.953125 195.328125 L 79.984375 192.789062 L 81.675781 190.421875 L 84.042969 187.210938 L 89.621094 179.769531 L 91.992188 176.554688 L 92.160156 175.707031 L 91.820312 175.03125 L 91.992188 174.1875 L 92.667969 173.171875 L 93.175781 173.003906 L 94.359375 173.003906 L 95.203125 173.511719 L 95.542969 174.1875 L 95.542969 175.371094 L 95.375 176.386719 L 96.386719 178.246094 L 98.25 181.460938 L 98.925781 181.796875 L 100.109375 181.796875 L 101.125 181.964844 L 103.660156 179.597656 L 105.691406 177.738281 L 107.550781 176.214844 L 110.425781 173.511719 L 112.117188 171.988281 L 113.300781 170.972656 L 113.132812 169.621094 L 113.808594 168.4375 L 114.484375 168.097656 L 115.5 168.097656 L 116.34375 168.605469 L 116.851562 169.621094 L 116.683594 170.804688 L 116.515625 171.140625 L 117.699219 172.664062 L 119.21875 174.355469 L 121.925781 174.355469 L 123.617188 172.832031 L 124.292969 172.328125 L 124.292969 151.1875 Z M 113.808594 171.648438 L 112.792969 172.328125 L 110.257812 174.695312 L 108.902344 175.878906 L 107.210938 177.398438 L 105.859375 178.582031 L 103.828125 180.445312 L 102.476562 181.628906 L 101.292969 182.644531 L 101.292969 183.828125 L 100.617188 185.179688 L 99.433594 185.519531 L 98.25 185.179688 L 97.570312 184.164062 L 97.402344 183.488281 L 97.910156 182.644531 L 97.742188 181.796875 L 96.386719 179.597656 L 95.035156 177.230469 L 94.867188 176.722656 L 92.835938 176.722656 L 91.3125 178.414062 L 89.621094 180.78125 L 87.253906 183.996094 L 84.71875 187.378906 L 82.351562 190.589844 L 80.320312 193.296875 L 78.460938 195.835938 L 78.628906 196.679688 L 78.628906 197.863281 L 77.953125 198.878906 L 76.9375 199.21875 L 75.753906 198.878906 L 75.078125 198.035156 L 74.910156 197.695312 L 74.910156 196.679688 L 75.585938 195.835938 L 74.738281 193.636719 L 74.0625 192.621094 L 73.21875 192.28125 L 72.035156 193.128906 L 71.863281 193.972656 L 72.035156 194.820312 L 71.695312 196.003906 L 71.1875 196.511719 L 69.160156 196.511719 L 68.480469 195.835938 L 68.3125 195.496094 L 68.3125 194.3125 L 68.652344 193.804688 L 68.480469 192.960938 L 67.128906 191.4375 L 64.929688 191.097656 L 63.410156 192.28125 L 61.039062 194.3125 L 59.179688 196.003906 L 57.488281 197.355469 L 56.644531 198.203125 L 56.8125 199.21875 L 56.136719 200.570312 L 55.628906 200.910156 L 54.105469 200.910156 L 53.09375 200.0625 L 52.921875 198.710938 L 53.261719 197.695312 L 52.921875 196.847656 L 51.570312 196.511719 L 50.21875 196.34375 L 49.539062 196.679688 L 49.371094 197.355469 L 49.371094 198.710938 L 48.527344 199.722656 L 48.1875 199.894531 L 46.835938 199.894531 L 45.820312 199.046875 L 45.652344 198.710938 L 45.652344 197.527344 L 46.15625 196.847656 L 45.820312 195.835938 L 43.113281 190.253906 L 42.605469 189.746094 L 41.421875 189.746094 L 40.578125 190.421875 L 38.039062 193.804688 L 38.207031 194.820312 L 38.207031 196.171875 L 37.195312 197.1875 L 35.671875 197.1875 L 34.65625 197.019531 L 31.273438 199.386719 L 28.738281 201.078125 L 28.738281 204.460938 L 124.292969 204.460938 L 124.292969 173.339844 L 123.617188 173.679688 L 122.09375 175.203125 L 122.265625 176.554688 L 121.25 177.90625 L 120.066406 178.078125 L 119.050781 177.398438 L 118.542969 176.722656 L 118.710938 174.863281 L 116.515625 172.496094 L 115.835938 171.820312 Z M 113.808594 171.648438 " fill-opacity="1" fill-rule="nonzero"/></svg>